<svg width="31" height="31" viewBox="0 0 31 31" fill="none" xmlns="http://www.w3.org/2000/svg">
<g opacity="0.5" filter="url(#filter0_d_5_41)">
<rect x="1" y="1" width="29" height="29" rx="14.5" fill="#F0F0F0" shape-rendering="crispEdges"/>
<path fill-rule="evenodd" clip-rule="evenodd" d="M15.7741 10.8609C15.943 10.7132 16.1997 10.7303 16.3474 10.8991L20.1391 15.2325C20.2731 15.3857 20.2731 15.6143 20.1391 15.7675L16.3474 20.1009C16.1997 20.2697 15.943 20.2868 15.7741 20.139C15.6053 19.9913 15.5882 19.7346 15.736 19.5658L18.9381 15.9062H11.1667C10.9423 15.9062 10.7604 15.7244 10.7604 15.5C10.7604 15.2756 10.9423 15.0937 11.1667 15.0937H18.9381L15.736 11.4342C15.5882 11.2653 15.6053 11.0087 15.7741 10.8609Z" fill="#1E1E1E" stroke="#1E1E1E" stroke-width="0.741"/>
</g>
<defs>
<filter id="filter0_d_5_41" x="0" y="0" width="31" height="31" filterUnits="userSpaceOnUse" color-interpolation-filters="sRGB">
<feFlood flood-opacity="0" result="BackgroundImageFix"/>
<feColorMatrix in="SourceAlpha" type="matrix" values="0 0 0 0 0 0 0 0 0 0 0 0 0 0 0 0 0 0 127 0" result="hardAlpha"/>
<feOffset/>
<feGaussianBlur stdDeviation="0.5"/>
<feComposite in2="hardAlpha" operator="out"/>
<feColorMatrix type="matrix" values="0 0 0 0 1 0 0 0 0 1 0 0 0 0 1 0 0 0 0.1 0"/>
<feBlend mode="normal" in2="BackgroundImageFix" result="effect1_dropShadow_5_41"/>
<feBlend mode="normal" in="SourceGraphic" in2="effect1_dropShadow_5_41" result="shape"/>
</filter>
</defs>
</svg>
