<svg width="21" height="15" viewBox="0 0 21 15" fill="none" xmlns="http://www.w3.org/2000/svg">
<path d="M10.4838 2V12.5" stroke="#E0E0E0" stroke-width="0.8"/>
<path d="M20.6667 5.11216V5.09491L20.6676 5.09587C20.6676 4.83616 20.4568 4.62533 20.1971 4.62533H17.3135V4.13753C17.3135 3.87782 17.1026 3.66699 16.8429 3.66699H16.8257C16.566 3.66699 16.3551 3.87782 16.3551 4.13753V4.62533H13.4715C13.2118 4.62533 13.001 4.83616 13.001 5.09587V5.11312C13.001 5.37283 13.2118 5.58366 13.4715 5.58366H18.7165C18.6187 6.40016 18.2469 8.06766 16.8343 9.20328C16.2957 8.76916 15.9085 8.25933 15.6297 7.74757C15.5463 7.5952 15.3891 7.49937 15.2157 7.49937C14.8582 7.49937 14.633 7.88078 14.8017 8.19608C15.0892 8.73178 15.4754 9.26845 15.9929 9.74283C15.3201 10.0811 14.4845 10.3121 13.4447 10.3638C13.1955 10.3763 13 10.5842 13 10.8334V10.8507C13 11.12 13.2262 11.3346 13.4945 11.3212C14.9023 11.2532 15.991 10.8919 16.8333 10.3763C17.6757 10.8919 18.7644 11.2532 20.1722 11.3212C20.4415 11.3346 20.6667 11.12 20.6667 10.8507V10.8334C20.6667 10.5833 20.4712 10.3763 20.222 10.3638C19.1832 10.313 18.3465 10.0821 17.6748 9.74283C19.1774 8.3657 19.5703 6.46149 19.6729 5.5827H20.1961C20.4558 5.5827 20.6667 5.37187 20.6667 5.11216Z" fill="#E0E0E0"/>
<path d="M5.39651 3.78677C5.81721 3.9631 6.10088 4.36752 6.20342 4.81218H6.20151L7.56426 10.7596C7.63134 11.0528 7.40901 11.3327 7.10809 11.3327H7.09659C6.87905 11.3327 6.6893 11.1822 6.64042 10.9695L6.28201 9.41602H3.2968L2.92401 10.9733C2.87321 11.1841 2.68538 11.3327 2.4688 11.3327C2.16596 11.3327 1.94363 11.0509 2.01263 10.7567L3.42617 4.76522C3.57567 4.12122 4.14876 3.66602 4.80905 3.66602C5.00071 3.66602 5.19909 3.70435 5.39651 3.78677Z" fill="#E0E0E0"/>
<path d="M4.35965 4.98148L3.52686 8.45736H6.06069L5.26815 5.02652C5.22981 4.85977 5.13206 4.71506 5.02569 4.67098C4.9519 4.63936 4.87906 4.62402 4.80911 4.62402C4.59348 4.62402 4.40852 4.77161 4.35965 4.98148Z" fill="#1E1E1E"/>
</svg>
