<svg width="16" height="16" viewBox="0 0 16 16" fill="none" xmlns="http://www.w3.org/2000/svg">
<path d="M11.8805 7.5H13.2" stroke="#E0E0E0" stroke-width="0.703125"/>
<path d="M1.8 7.5H9.06797" stroke="#E0E0E0" stroke-width="0.703125"/>
<path d="M6.22031 3.74298H13.2" stroke="#E0E0E0" stroke-width="0.703125"/>
<path d="M1.8 3.74298H3.4125" stroke="#E0E0E0" stroke-width="0.703125"/>
<path d="M8.20312 11.257H13.2" stroke="#E0E0E0" stroke-width="0.703125"/>
<path d="M1.8 11.257H5.39062" stroke="#E0E0E0" stroke-width="0.703125"/>
<path d="M4.81641 5.07657C5.59306 5.07657 6.22266 4.44697 6.22266 3.67032C6.22266 2.89367 5.59306 2.26407 4.81641 2.26407C4.03976 2.26407 3.41016 2.89367 3.41016 3.67032C3.41016 4.44697 4.03976 5.07657 4.81641 5.07657Z" stroke="#E0E0E0" stroke-width="0.703125"/>
<path d="M10.4742 8.90625C11.2509 8.90625 11.8805 8.27665 11.8805 7.5C11.8805 6.72335 11.2509 6.09375 10.4742 6.09375C9.69757 6.09375 9.06797 6.72335 9.06797 7.5C9.06797 8.27665 9.69757 8.90625 10.4742 8.90625Z" stroke="#E0E0E0" stroke-width="0.703125"/>
<path d="M6.79688 12.6633C7.57353 12.6633 8.20312 12.0337 8.20312 11.257C8.20312 10.4804 7.57353 9.85078 6.79688 9.85078C6.02022 9.85078 5.39062 10.4804 5.39062 11.257C5.39062 12.0337 6.02022 12.6633 6.79688 12.6633Z" stroke="#E0E0E0" stroke-width="0.703125"/>
</svg>
